<?xml version="1.0" encoding="UTF-8"?>
<svg width="340px" height="340px" viewBox="0 0 340 340" version="1.1" xmlns="http://www.w3.org/2000/svg" xmlns:xlink="http://www.w3.org/1999/xlink">
    <circle id="Oval-2-Copy-24" stroke="#FFB611" fill="none" cx="31" cy="-3.55271368e-14" r="16"/>
    <circle id="Oval-2-Copy-24" stroke="#FFB611" fill="none" cx="86" cy="54" r="16"/>
    <circle id="Oval-2-Copy-24" fill="none" cx="31" cy="111" r="16"/>
    <circle id="Oval-2-Copy-24" stroke="#FFB611" fill="none" cx="145" cy="-3.55271368e-14" r="16"/>
    <circle id="Oval-2-Copy-24" fill="none" cx="200" cy="54" r="16"/>
    <circle id="Oval-2-Copy-24" fill="none" cx="145" cy="111" r="16"/>
    <circle id="Oval-2-Copy-24" stroke="#FFB611" fill="none" cx="258" cy="-3.55271368e-14" r="16"/>
    <circle id="Oval-2-Copy-24" stroke="#FFB611" fill="none" cx="200" cy="54" r="16"/>
    <circle id="Oval-2-Copy-24" stroke="#FFB611" fill="none" cx="309" cy="54" r="16"/>
    <circle id="Oval-2-Copy-24" fill="none" cx="258" cy="111" r="16"/>
    <circle id="Oval-2-Copy-24" stroke="#FFB611" fill="none" cx="31" cy="111" r="16"/>
    <circle id="Oval-2-Copy-24" stroke="#FFB611" fill="none" cx="86" cy="171" r="16"/>
    <circle id="Oval-2-Copy-24" fill="none" cx="31" cy="228" r="16"/>
    <circle id="Oval-2-Copy-24" stroke="#FFB611" fill="none" cx="145" cy="111" r="16"/>
    <circle id="Oval-2-Copy-24" fill="none" cx="200" cy="171" r="16"/>
    <circle id="Oval-2-Copy-24" fill="none" cx="145" cy="228" r="16"/>
    <circle id="Oval-2-Copy-24" stroke="#FFB611" fill="none" cx="258" cy="111" r="16"/>
    <circle id="Oval-2-Copy-24" stroke="#FFB611" fill="none" cx="200" cy="171" r="16"/>
    <circle id="Oval-2-Copy-24" stroke="#FFB611" fill="none" cx="309" cy="171" r="16"/>
    <circle id="Oval-2-Copy-24" fill="none" cx="258" cy="228" r="16"/>
    <circle id="Oval-2-Copy-24" stroke="#FFB611" fill="none" cx="31" cy="228" r="16"/>
    <circle id="Oval-2-Copy-24" stroke="#FFB611" fill="none" cx="86" cy="285" r="16"/>
    <circle id="Oval-2-Copy-24" stroke="#FFB611" fill="none" cx="145" cy="228" r="16"/>
    <circle id="Oval-2-Copy-24" fill="none" cx="200" cy="285" r="16"/>
    <circle id="Oval-2-Copy-24" stroke="#FFB611" fill="none" cx="258" cy="228" r="16"/>
    <circle id="Oval-2-Copy-24" stroke="#FFB611" fill="none" cx="200" cy="285" r="16"/>
    <circle id="Oval-2-Copy-24" stroke="#FFB611" fill="none" cx="309" cy="285" r="16"/>
    <ellipse id="Oval-2-Copy-24" fill="none" cx="30.9749304" cy="340.904494" rx="15.718663" ry="15.9044944"/>
    <ellipse id="Oval-2-Copy-24" fill="none" cx="145.142061" cy="340.904494" rx="15.718663" ry="15.9044944"/>
    <ellipse id="Oval-2-Copy-24" fill="none" cx="257.654596" cy="340.904494" rx="15.718663" ry="15.9044944"/>
    <ellipse id="Oval-2-Copy-24" stroke="#FFB611" fill="none" cx="30.9749304" cy="339.904494" rx="15.718663" ry="15.9044944"/>
    <ellipse id="Oval-2-Copy-24" stroke="#FFB611" fill="none" cx="145.142061" cy="339.904494" rx="15.718663" ry="15.9044944"/>
    <ellipse id="Oval-2-Copy-24" stroke="#FFB611" fill="none" cx="257.654596" cy="339.904494" rx="15.718663" ry="15.9044944"/>
</svg>