<?xml version="1.0" encoding="utf-8"?>
<!-- Generator: Adobe Illustrator 25.2.3, SVG Export Plug-In . SVG Version: 6.00 Build 0)  -->
<svg version="1.1" id="Capa_1" xmlns="http://www.w3.org/2000/svg" xmlns:xlink="http://www.w3.org/1999/xlink" x="0px" y="0px"
	 viewBox="0 0 279.8 312.4" style="enable-background:new 0 0 279.8 312.4;" xml:space="preserve">
<style type="text/css">
	.st0{fill:#FFD900;}
</style>
<path class="st0" d="M22.1,77.9C32.9,97.3,44,117.4,44,156.8c0,39.4-11.1,59.4-21.9,78.8C11.6,254.7,0.6,274.5,0,312.4h5
	c0.5-37.5,11.3-57,21.9-75.9C37.7,217,49,196.7,49,156.8S37.7,96.6,26.9,77C16.3,57.9,5.4,38.1,5,0H0C0.4,38.6,11.5,58.6,22.1,77.9z
	"/>
<path class="st0" d="M79.7,77.9c10.8,19.4,21.9,39.5,21.9,78.9c0,39.4-11.1,59.4-21.9,78.8c-10.5,19.1-21.5,38.9-22.1,76.9h5
	c0.5-37.5,11.3-57,21.9-75.9c10.8-19.6,22.1-39.9,22.1-79.8S95.3,96.6,84.5,77C73.8,57.9,62.9,38.1,62.6,0h-5
	C57.9,38.6,69,58.6,79.7,77.9z"/>
<path class="st0" d="M137.5,77.9c10.8,19.4,21.9,39.5,21.9,78.9c0,39.4-11.1,59.4-21.9,78.8c-10.5,19.1-21.5,38.9-22.1,76.9h5
	c0.5-37.5,11.3-57,21.9-75.9c10.8-19.6,22.1-39.9,22.1-79.8S153.1,96.6,142.3,77c-10.6-19.1-21.5-38.8-21.9-77h-5
	C115.8,38.6,126.9,58.6,137.5,77.9z"/>
<path class="st0" d="M194.7,77.9c10.8,19.4,21.9,39.5,21.9,78.9c0,39.4-11.1,59.4-21.9,78.8c-10.5,19.1-21.5,38.9-22.1,76.9h5
	c0.5-37.5,11.3-57,21.9-75.9c10.8-19.6,22.1-39.9,22.1-79.8S210.3,96.6,199.5,77C188.9,57.9,178,38.1,177.7,0h-5
	C173,38.6,184.1,58.6,194.7,77.9z"/>
<path class="st0" d="M252.9,77.9c10.8,19.4,21.9,39.5,21.9,78.9c0,39.4-11.1,59.4-21.9,78.8c-10.5,19.1-21.5,38.9-22.1,76.9h5
	c0.5-37.5,11.3-57,21.9-75.9c10.8-19.6,22.1-39.9,22.1-79.8S268.5,96.6,257.7,77c-10.6-19.1-21.5-38.8-21.9-77h-5
	C231.2,38.6,242.3,58.6,252.9,77.9z"/>
</svg>
