<svg xmlns="http://www.w3.org/2000/svg" width="57" height="80" viewBox="0 0 57 80">
    <path fill="#10C3D9" fill-rule="nonzero" d="M55.783 53.647c.744-11.37-2.533-22.667-5.437-30.18-2.886-7.468-5.9-12.642-6.533-13.697-.197-.836-.995-3.288-3.715-4.452-.609-.393-3.701-2.34-7.42-3.765-5.784-2.217-10.073-2.06-12.749.467-3.586 3.388-5.243 6.401-4.925 8.957a4.467 4.467 0 0 0 1.224 2.59c-.029.26-.024.559.041.89.284 1.444 1.595 2.848 3.898 4.172 4.693 2.698 8.284.991 10.66-.138.225-.107.444-.21.656-.308.355-.161.512-.09.579-.059.392.18.767.844.96 1.356-.398 2.263-2.557 15.288-1.078 23.976-4.028-1.33-7.738-.988-10.492-.28a22.68 22.68 0 0 0-6.723 2.98c-2.24-.909-4.945-1.091-7.914-.54l-.003-.027a1.263 1.263 0 0 0-1.26-1.143H1.265c-.699 0-1.265.563-1.265 1.259V74.15c0 .695.566 1.258 1.265 1.258.7 0 1.266-.563 1.266-1.258V46.964h1.893c.26 2.012.949 6.457 2.494 11.674 2.378 8.031 5.691 14.353 9.87 18.844H1.265c-.699 0-1.265.564-1.265 1.26C0 79.436.566 80 1.265 80h18.65c.529 0 1.002-.328 1.186-.82a1.255 1.255 0 0 0-.36-1.393l-.037-.032c2.557-1.035 4.78-2.42 6.628-4.132.494.032.972.046 1.427.046 2.193 0 3.841-.31 4.184-.38a29.214 29.214 0 0 0 1.99-.338c5.452-1.124 9.498-3.69 11.766-7.448 3.12.462 8.15-.02 9.782-4.631 1.027-2.905.39-5.394-.698-7.225zm-1.69 6.39c-1.505 4.255-7.507 2.894-7.76 2.835a1.268 1.268 0 0 0-1.424.653c-4.375 8.562-17.728 7.492-17.862 7.48a1.252 1.252 0 0 0-.409.03c-1.996-.22-4.174-.809-5.964-2.144a1.27 1.27 0 0 0-1.771.251 1.255 1.255 0 0 0 .253 1.763c1.489 1.111 3.162 1.8 4.818 2.211-1.535 1.107-3.3 2.013-5.278 2.704-7.803-8.376-10.665-22.084-11.545-27.706 2.1-.406 4.829-.544 7.152.612.434.216.957.164 1.342-.132.026-.02 2.66-2.026 6.528-3.001 3.844-.97 7.497-.623 10.902 1.026.047.027.095.05.145.071a18.623 18.623 0 0 1 3.046 1.911 1.265 1.265 0 0 0 1.774-.23 1.255 1.255 0 0 0-.23-1.765 21.11 21.11 0 0 0-3.03-1.942c-2.202-8.589.757-24.88.788-25.047a1.255 1.255 0 0 0-.024-.562c-.068-.246-.714-2.425-2.411-3.212-.586-.272-1.532-.484-2.705.051-.223.102-.454.212-.692.325-2.233 1.061-4.764 2.264-8.302.23-2.461-1.415-2.745-2.407-2.687-2.628a1.255 1.255 0 0 0-.443-1.781c-.006-.004-.67-.43-.788-1.373-.12-.967.259-3.14 4.156-6.82 3.924-3.708 13.695 1.368 17.13 3.636.07.046.144.086.222.117 1.984.805 2.33 2.75 2.343 2.82.025.169.084.33.173.474.127.206 12.075 19.848 11.82 40.04a6.752 6.752 0 0 0-.176-.123 1.27 1.27 0 0 0-1.758.332 1.255 1.255 0 0 0 .334 1.749c.039.026 3.902 2.708 2.334 7.145z"/>
</svg>
