<?xml version="1.0" encoding="utf-8"?>
<!-- Generator: Adobe Illustrator 21.1.0, SVG Export Plug-In . SVG Version: 6.00 Build 0)  -->
<!DOCTYPE svg PUBLIC "-//W3C//DTD SVG 1.1//EN" "http://www.w3.org/Graphics/SVG/1.1/DTD/svg11.dtd">
<svg version="1.1" id="Icon1" xmlns="http://www.w3.org/2000/svg" xmlns:xlink="http://www.w3.org/1999/xlink" x="0px" y="0px"
	 viewBox="0 0 70 70" style="enable-background:new 0 0 70 70;" xml:space="preserve">
<style type="text/css">
	.st0{fill:#045D7F;}
</style>
<title>icons</title>
<g id="hi-power">
	<path class="st0" d="M63.3,39.8c-9-8.6-18.9-1-19.3-0.7l-0.6-0.8c0.1-0.1,11-8.5,20.6,0.7L63.3,39.8z"/>
	<path class="st0" d="M28.9,42.7l-0.8-0.5c0.2-0.2,4-6,9.6-6.1c3.3-0.1,6.5,1.9,9.5,5.9l-0.8,0.6c-2.7-3.7-5.7-5.5-8.6-5.5
		C32.7,37.2,29,42.6,28.9,42.7z"/>
	<path class="st0" d="M39,56.3c-4.1,0-7.9-1.9-10.4-5.1l0.8-0.5c0.2,0.3,5.6,8.2,16.8,2.9l0.4,0.9C44.3,55.6,41.7,56.3,39,56.3z"/>
	<path class="st0" d="M39.1,65.2c-5.8,0-11.9-1.8-16.5-7.8c-1.5-0.5-7.5-2.4-8.4-3.4c-1.2-1.2-3.6-10-1.4-16.4
		c1.8-5.3,5.3-10,7.4-12.9c0.5-0.6,0.9-1.2,1.2-1.6c1.8-2.8,3-6,3.5-9.2c0.2-3.1,2.1-4.9,3.9-4.8c1.5,0.1,13.1,0,13.3,0
		c1.2-0.2,2.3,0.6,2.4,1.8c0,0,0,0.1,0,0.1c0.3,2.2,0.3,4.4,0.1,6.6c-0.2,0.8-0.5,1.6-1.7,1.6h-1.3v-1h1.3c0.4,0,0.5,0,0.7-0.8
		c0.2-2.1,0.1-4.2-0.1-6.2c-0.1-0.6-0.7-1.1-1.3-1c0,0-0.1,0-0.1,0c-0.5,0-11.9,0.1-13.4,0C27.5,10,26,11.5,25.9,14
		c-0.5,3.5-1.8,6.8-3.7,9.7c-0.3,0.5-0.7,1-1.2,1.7c-2.1,2.8-5.5,7.4-7.2,12.6c-2.2,6.4,0.4,14.6,1.2,15.4c0.6,0.7,5.4,2.3,8.2,3.2
		h0.2l0.1,0.1c10.8,14.4,31.4,3.7,31.6,3.6l0.5,0.9C50.4,63.7,44.8,65.1,39.1,65.2z"/>
	<path class="st0" d="M40.5,21.1h-0.9v-1h0.9c0.6,0,0.6-0.3,0.6-0.5s0-0.9,0-1.8c0-1.9,0.1-4.7,0.1-5.5c0-0.1,0-0.2-0.1-0.3
		c-0.4-0.2-0.8-0.3-1.2-0.2l-0.1-1c0.7-0.1,1.4,0.1,1.9,0.5c0.3,0.3,0.5,0.6,0.5,1c0,0.9,0,3.6-0.1,5.6c0,0.8,0,1.5,0,1.7
		c0,0.8-0.6,1.5-1.4,1.5C40.7,21.1,40.6,21.1,40.5,21.1z"/>
	<path class="st0" d="M34,23.2c-0.5,0-1.1-0.1-1.6-0.2c-1.5-0.5-1.6-2.7-1.6-3.3h1c0,0.7,0.2,2.2,0.9,2.4c1,0.2,2.1,0.2,3.1,0.1
		c0.7,0,1.3-0.1,1.9-0.1s0.9-0.1,0.9-0.1c0-0.1,0-0.2,0-0.3c0-0.2,0-0.4,0-0.5c0-0.4,0-1.9,0-3.2s0-2.5,0-3.2c0-0.1,0-0.3-0.1-0.4
		C38,14,37.5,13.9,37,14l-0.1-1c0.8-0.1,1.6,0.1,2.2,0.5c0.3,0.3,0.5,0.7,0.4,1.1c0,0.6,0,1.9,0,3.1c0,1.5,0,2.9,0,3.4
		c0,0.1,0,0.3,0,0.4c0,0.9-0.3,1.4-1.9,1.4c-0.6,0-1.2,0-1.8,0.1S34.6,23.2,34,23.2z"/>
	<path class="st0" d="M30.9,20.1c-0.8,0-1.6-0.3-2.1-0.9c-1.4-1.5-0.8-4.4-0.8-4.6l1,0.2c-0.1,0.7-0.3,2.8,0.5,3.7
		c0.5,0.5,1.1,0.6,1.8,0.5c4.1-0.5,4.5-0.1,4.7,0l-0.7,0.7l0.3-0.4l-0.2,0.5c0,0-0.7-0.2-4,0.2L30.9,20.1z"/>
	<rect x="35" y="18" class="st0" width="1" height="2.7"/>
	<path class="st0" d="M20.7,45.7v-1c4.2-0.1,4.9-3.1,5.2-5.9C26,37.9,26,35.1,26,26.5v-0.5h1v0.5c0.1,6.9,0,11-0.1,12.4
		C26.6,41,26.2,45.5,20.7,45.7z"/>
	<path class="st0" d="M31.3,39.8l-1-0.3c0.3-0.9-0.2-8.6-0.6-13.7c-0.2-3.4,0.1-5.6,0.9-6.4c0.2-0.2,0.5-0.3,0.8-0.3l-0.1,1
		c0,0,0.1,0,0.1,0c0,0-1,0.5-0.6,5.7C31.4,34.4,31.6,38.9,31.3,39.8z"/>
</g>
</svg>
